<svg class="icon" width="200" height="200" viewBox="0 0 1024 1024" xmlns="http://www.w3.org/2000/svg"><path d="M1010.336 408.448h-20.768l-456.544-269.76H491.52L34.976 408.448H14.24v-58.432l145.28-83.264V138.688c0-14.272 5.76-20.768 20.768-20.768h41.504c15.008 0 20.768 6.496 20.768 20.768v80.48L491.584 76.416h41.504L1010.4 348.992v59.456zm-518.784-207.52h41.504l435.808 249.024v394.272c0 63.2-55.52 103.744-120.576 103.744H173.056c-65.024 0-117.76-51.232-117.76-114.432l.48-383.616 435.776-249.024zM367.04 864.992h290.528V512.224H367.04v352.768z"/></svg>